# xmcd CD database file
#
# Track frame offsets:
#	150
#	37182
#	75162
#	120170
#	162317
#	204465
#	245417
#
# Disc length: 3719 seconds
#
# Revision: 0
# Processed by: cddbd v1.5.2PL0 Copyright (c) Steve Scherf et al.
# Submitted via: CDex 1.51
#
DISCID=4c0e8507
DTITLE=MEETA RAVINDRA - RAGAS DOS CHAKRAS
DYEAR=1900
DGENRE=New Age
TTITLE0=GUJARI TODI
TTITLE1=KAFI
TTITLE2=MALKAUNS
TTITLE3=PILU
TTITLE4=BAIRAGI
TTITLE5=MARWA
TTITLE6=ADANA
EXTD=
EXTT0=
EXTT1=
EXTT2=
EXTT3=
EXTT4=
EXTT5=
EXTT6=
PLAYORDER=
